<?xml version="1.0" standalone="no"?>
<!DOCTYPE svg PUBLIC "-//W3C//DTD SVG 20010904//EN"
 "http://www.w3.org/TR/2001/REC-SVG-20010904/DTD/svg10.dtd">
<svg version="1.0" xmlns="http://www.w3.org/2000/svg"
 width="260.000000pt" height="260.000000pt" viewBox="0 0 260.000000 260.000000"
 preserveAspectRatio="xMidYMid meet">
<metadata>
Created by potrace 1.14, written by Peter Selinger 2001-2017
</metadata>
<g transform="translate(0.000000,260.000000) scale(0.100000,-0.100000)"
fill="#000000" stroke="none">
<path d="M1169 2593 c-1 -5 -1 -12 0 -17 1 -5 -6 -5 -15 -2 -10 4 -21 1 -26
-6 -4 -7 -8 -8 -8 -3 0 16 -113 7 -122 -9 -5 -9 -22 -13 -49 -11 -30 3 -46 -2
-60 -16 -11 -11 -24 -17 -29 -14 -6 4 -12 0 -15 -7 -3 -8 -15 -15 -27 -15 -12
-1 -26 -9 -30 -18 -5 -8 -13 -13 -18 -10 -5 3 -21 -2 -36 -12 -15 -9 -34 -18
-42 -20 -9 -1 -19 -9 -24 -18 -5 -8 -14 -12 -20 -9 -6 4 -16 0 -22 -8 -12 -16
-16 -18 -46 -18 -11 0 -19 -3 -18 -7 4 -12 -51 -67 -67 -69 -21 -3 -66 -40
-58 -48 3 -3 1 -6 -5 -6 -14 0 -82 -67 -82 -80 0 -6 -6 -9 -12 -7 -7 1 -12 -3
-11 -10 2 -6 -6 -15 -17 -18 -12 -4 -17 -13 -15 -26 2 -11 -2 -22 -10 -26 -8
-3 -12 -9 -9 -14 3 -5 -4 -9 -16 -9 -12 0 -19 -4 -16 -8 3 -5 -4 -16 -14 -25
-11 -9 -17 -23 -14 -30 3 -8 -2 -17 -10 -20 -9 -4 -16 -18 -16 -32 0 -15 -5
-24 -12 -22 -7 1 -12 -3 -11 -10 2 -6 -6 -15 -17 -18 -12 -4 -17 -13 -15 -25
2 -11 -4 -24 -13 -30 -9 -5 -13 -10 -8 -10 5 0 3 -6 -3 -14 -9 -10 -9 -16 -1
-21 8 -5 6 -11 -5 -18 -8 -7 -17 -23 -20 -36 -3 -14 -11 -28 -18 -32 -8 -5
-12 -24 -12 -51 1 -28 -5 -51 -17 -67 -15 -19 -16 -26 -6 -33 9 -5 9 -8 2 -8
-8 0 -10 -16 -8 -49 4 -35 0 -53 -11 -64 -20 -21 -23 -279 -3 -275 9 2 13 -10
13 -37 0 -22 5 -43 10 -47 6 -5 6 -8 -1 -8 -7 0 -10 -13 -8 -32 1 -18 3 -41 3
-50 1 -10 7 -18 14 -18 9 0 13 -12 12 -37 -2 -42 13 -83 29 -83 6 0 6 -4 -1
-11 -13 -13 4 -62 18 -53 5 3 9 -8 9 -24 0 -18 6 -32 16 -36 9 -3 14 -13 10
-21 -3 -8 3 -21 14 -28 11 -8 17 -17 13 -20 -3 -4 1 -7 10 -7 10 0 17 -8 17
-19 0 -11 6 -26 13 -33 6 -7 13 -21 15 -31 3 -20 56 -77 72 -77 5 0 10 -7 10
-15 0 -8 6 -15 14 -15 9 0 13 -7 11 -20 -2 -12 5 -26 18 -35 12 -8 17 -15 12
-15 -6 0 5 -9 23 -20 18 -11 30 -25 27 -30 -3 -6 1 -10 9 -10 9 0 16 -7 16
-16 0 -10 6 -14 14 -11 8 3 23 -3 34 -14 12 -10 27 -19 33 -19 7 0 10 -3 6 -6
-11 -12 65 -74 91 -74 30 -1 62 -21 62 -39 0 -10 20 -15 48 -12 6 1 12 -5 12
-14 0 -9 9 -15 23 -15 12 0 31 -10 42 -22 10 -12 20 -18 22 -12 4 13 64 9 73
-5 3 -6 17 -14 30 -16 13 -3 27 -10 31 -17 5 -9 31 -13 83 -12 59 2 76 -1 76
-12 0 -12 40 -14 231 -14 151 0 228 3 224 10 -6 10 3 13 40 12 11 0 23 5 27
12 5 7 8 7 8 1 0 -7 15 -9 35 -7 19 2 35 10 35 16 0 9 14 12 40 10 29 -2 40 2
40 12 0 8 7 15 15 15 8 1 24 3 35 4 11 1 25 3 31 4 5 0 7 6 3 13 -5 8 0 9 14
6 14 -4 25 -1 30 9 5 8 15 15 24 16 8 2 27 11 41 20 15 10 27 14 27 11 0 -4 9
1 19 10 11 10 24 16 29 13 4 -3 15 3 22 14 8 10 20 19 28 19 7 0 10 5 7 10 -3
6 -3 10 2 11 31 3 48 10 55 24 5 8 14 13 19 9 5 -3 8 -1 7 4 -4 13 106 116
110 103 6 -18 22 -2 22 22 0 20 86 114 101 110 4 -1 6 6 6 15 0 35 3 42 19 42
8 0 13 4 9 9 -3 5 4 13 16 16 15 5 18 9 9 15 -9 5 -9 9 -1 14 6 4 9 12 6 17
-4 5 1 9 10 9 9 0 15 6 12 13 -6 16 12 49 23 42 5 -3 7 4 5 15 -2 11 3 27 12
36 10 10 17 36 18 72 3 73 3 74 15 67 6 -4 10 23 10 74 0 46 -4 81 -10 81 -16
0 -81 -68 -69 -72 7 -2 -4 -19 -22 -38 -19 -18 -34 -38 -35 -44 0 -6 -2 -17
-2 -24 -1 -6 -7 -11 -14 -10 -7 2 -13 -3 -14 -9 -1 -7 -2 -15 -3 -18 0 -3 -11
5 -23 17 l-21 21 -8 -21 c-4 -11 -19 -28 -34 -38 -17 -11 -22 -20 -16 -28 10
-12 -12 -40 -23 -29 -3 4 -6 1 -6 -6 0 -21 -34 -48 -58 -46 -15 1 -21 -3 -18
-12 3 -7 1 -13 -4 -13 -5 0 -37 -29 -72 -64 -64 -65 -100 -90 -112 -79 -12 12
-6 33 9 33 8 0 15 7 15 15 0 9 6 12 15 9 18 -7 20 7 3 24 -14 14 -32 16 -24 3
3 -4 -5 -6 -19 -4 -37 8 -41 33 -5 33 17 0 30 4 30 9 0 5 16 25 35 44 19 19
35 32 35 29 0 -3 6 3 14 14 8 10 17 16 21 12 12 -11 32 15 27 34 -3 12 1 18
12 18 9 0 16 4 16 10 0 5 9 19 20 30 11 11 20 18 20 15 0 -2 10 6 23 18 12 12
21 30 19 39 -2 10 3 21 12 24 9 3 16 16 16 29 0 13 7 25 15 28 8 4 12 15 10
28 -3 14 2 23 14 26 13 3 17 12 15 33 -2 16 3 36 11 44 9 9 15 33 15 61 0 27
5 48 13 50 18 8 19 292 0 299 -8 4 -13 23 -13 56 0 27 -4 50 -8 50 -13 0 -33
48 -23 55 5 2 7 19 5 37 -1 18 -3 36 -3 41 -1 4 -7 7 -15 7 -10 0 -13 12 -11
48 2 35 -2 50 -15 59 -11 8 -16 21 -13 37 3 16 -1 32 -11 42 -10 9 -15 23 -12
31 4 9 -1 17 -14 20 -11 3 -17 9 -15 14 3 4 -3 13 -14 18 -13 8 -17 17 -14 32
4 15 3 20 -5 15 -7 -4 -12 -1 -12 9 0 8 -11 20 -25 27 -13 6 -22 15 -19 19 3
5 -1 9 -9 9 -9 0 -13 9 -11 26 2 21 -1 25 -17 21 -10 -3 -19 -1 -19 5 0 5 -5
6 -11 2 -8 -5 -10 1 -7 18 4 23 -16 48 -44 54 -5 1 -11 3 -15 4 -5 1 -11 2
-15 1 -5 0 -8 3 -8 9 0 16 -51 62 -81 72 -16 5 -29 17 -29 26 0 15 -2 15 -10
2 -8 -13 -10 -12 -10 3 0 15 -13 21 -47 20 -7 -1 -10 3 -8 8 7 10 -26 28 -42
22 -7 -3 -13 2 -13 11 0 10 -9 16 -24 16 -13 0 -26 5 -28 11 -2 6 -19 12 -37
13 -18 1 -39 9 -45 18 -9 12 -23 16 -44 13 -21 -2 -35 2 -40 11 -10 18 -82 27
-82 11 0 -8 -3 -8 -8 -2 -9 13 -112 15 -112 2 0 -5 -7 -3 -17 4 -9 8 -19 13
-22 13 -3 -1 -5 2 -3 7 1 5 -34 9 -78 9 -44 0 -81 -3 -81 -7z m-543 -967 c-1
-26 -9 -50 -19 -60 -13 -13 -14 -22 -7 -36 6 -10 6 -21 2 -24 -10 -6 -8 -99 2
-114 4 -6 2 -13 -2 -16 -14 -9 -6 -113 10 -129 9 -10 14 -31 12 -61 -2 -34 1
-46 12 -46 13 0 20 -38 15 -78 -1 -7 4 -11 11 -10 7 2 13 -4 13 -12 0 -19 39
-70 53 -70 6 0 8 -8 5 -19 -3 -12 3 -24 16 -33 12 -8 18 -18 14 -21 -3 -4 2
-7 11 -7 14 0 17 -6 14 -25 -4 -17 -1 -25 8 -25 8 0 14 -7 14 -15 0 -8 3 -14
8 -12 8 2 107 -95 105 -104 -1 -3 8 -5 19 -4 21 2 67 -34 61 -47 -2 -5 7 -8
21 -8 14 0 31 -9 39 -21 9 -12 16 -16 19 -9 2 7 15 3 33 -12 16 -13 31 -22 32
-20 8 7 23 1 18 -8 -4 -6 7 -10 25 -10 18 0 29 -4 25 -10 -6 -10 28 -21 55
-18 35 3 60 -3 60 -15 0 -10 43 -13 200 -13 147 0 200 3 200 12 0 6 14 14 30
16 17 3 30 0 30 -5 0 -5 7 -4 15 3 8 7 15 9 15 4 1 -5 9 1 19 13 10 12 21 19
25 16 4 -4 17 -7 29 -8 35 0 35 -18 0 -27 -18 -5 -33 -14 -33 -20 0 -6 -3 -9
-6 -5 -3 3 -22 -3 -41 -13 -19 -10 -40 -17 -47 -14 -6 2 -21 -5 -33 -16 -13
-12 -24 -16 -28 -10 -4 6 -11 8 -16 4 -5 -3 -7 -9 -4 -14 6 -9 -32 -23 -51
-19 -20 4 -34 -2 -34 -13 0 -10 -36 -13 -146 -13 -121 0 -147 3 -154 16 -7 12
-23 15 -66 13 -44 -2 -61 2 -76 16 -16 14 -26 16 -44 10 -19 -7 -24 -6 -24 5
0 8 -6 16 -12 17 -7 0 -18 2 -24 2 -6 1 -18 9 -27 17 -9 9 -27 15 -41 14 -18
-2 -33 5 -51 27 -14 16 -29 27 -35 23 -5 -3 -17 3 -27 14 -9 11 -20 18 -25 15
-4 -3 -8 -1 -8 5 0 12 -70 87 -71 75 0 -5 -4 1 -10 14 -5 13 -13 20 -19 17 -5
-3 -10 -1 -10 6 0 12 -38 49 -51 49 -4 0 -6 11 -3 25 3 18 0 25 -11 25 -8 0
-15 7 -15 15 0 8 -7 15 -15 15 -11 0 -14 7 -11 24 3 17 -1 25 -14 29 -12 3
-17 12 -15 30 2 15 -2 25 -8 24 -14 -3 -26 45 -14 61 6 8 6 12 -2 12 -19 0
-43 28 -31 35 7 4 6 13 -1 27 -8 15 -8 19 0 14 18 -11 13 12 -7 32 -15 15 -17
37 -17 162 0 110 3 144 13 143 13 -3 15 3 13 63 0 29 4 44 15 48 8 3 14 11 13
18 -3 26 1 38 13 36 8 -2 12 10 12 32 0 33 12 54 27 45 3 -3 5 -24 5 -49z"/>
</g>
</svg>
